<svg id="Capa_1" enable-background="new 0 0 512 512" height="512" viewBox="0 0 512 512" width="512"
     xmlns="http://www.w3.org/2000/svg">
    <g>
        <path d="m454.003 418.264v-403.264c0-8.284-6.716-15-15-15h-297.581v433.264h297.581c8.284 0 15-6.716 15-15zm-166.291-80.78c-61.124 0-110.852-49.729-110.852-110.853s49.728-110.853 110.852-110.853 110.853 49.729 110.853 110.853-49.729 110.853-110.853 110.853z"/>
        <path d="m111.422 0h-38.425c-8.284 0-15 6.716-15 15v403.264c0 8.284 6.716 15 15 15h38.425z"/>
        <path d="m141.422 463.264v33.736c0 4.794 2.292 9.3 6.166 12.123 3.875 2.824 8.863 3.624 13.43 2.155l23.159-7.453 23.159 7.453c1.504.484 3.054.722 4.595.722 3.137 0 6.236-.983 8.835-2.877 3.874-2.823 6.166-7.329 6.166-12.123v-33.736z"/>
        <path d="m336.921 241.632c-1.692 21.628-7.041 41.564-15.565 58.491 23.449-10.778 40.882-32.443 45.791-58.491z"/>
        <path d="m238.503 211.632c1.692-21.628 7.041-41.564 15.564-58.491-23.449 10.778-40.881 32.443-45.79 58.491z"/>
        <path d="m321.356 153.141c8.524 16.927 13.873 36.863 15.565 58.491h30.226c-4.909-26.048-22.342-47.713-45.791-58.491z"/>
        <path d="m254.068 300.123c-8.523-16.927-13.873-36.863-15.564-58.491h-30.226c4.909 26.048 22.341 47.713 45.79 58.491z"/>
        <path d="m268.629 241.632c2.102 22.009 8.802 41.774 19.083 56.425 10.28-14.65 16.982-34.416 19.084-56.425z"/>
        <path d="m268.629 211.632h38.167c-2.102-22.009-8.803-41.775-19.084-56.425-10.28 14.651-16.981 34.416-19.083 56.425z"/>
    </g>
</svg>